<?xml version="1.0" standalone="no"?>
<!DOCTYPE svg PUBLIC "-//W3C//DTD SVG 20010904//EN"
 "http://www.w3.org/TR/2001/REC-SVG-20010904/DTD/svg10.dtd">
<svg version="1.0" xmlns="http://www.w3.org/2000/svg"
 width="224.000000pt" height="224.000000pt" viewBox="0 0 224.000000 224.000000"
 preserveAspectRatio="xMidYMid meet">

<g transform="translate(0.000000,224.000000) scale(0.100000,-0.100000)"
fill="#000000" stroke="none">
<path d="M970 2229 c-230 -30 -471 -150 -640 -319 -436 -436 -436 -1144 0
-1580 334 -334 843 -422 1268 -220 493 234 747 794 597 1315 -153 535 -673
875 -1225 804z m271 -449 c119 -37 222 -140 259 -259 97 -309 -192 -598 -501
-501 -119 37 -222 140 -259 259 -97 309 192 598 501 501z m31 -915 c228 -48
431 -205 529 -409 l24 -48 -45 -40 c-110 -98 -260 -177 -418 -220 -111 -31
-373 -31 -484 0 -158 43 -308 122 -418 220 l-45 40 24 48 c97 202 300 360 525
409 81 18 225 18 308 0z"/>
</g>
</svg>
